<svg width="602" height="308" viewBox="0 0 602 308" fill="none" xmlns="http://www.w3.org/2000/svg">
<path d="M575.279 170.279L573.393 185.31L568.713 222.642H474.69C475.424 214.275 476.427 202.231 477.5 189.23C477.605 187.931 477.716 186.625 477.822 185.31C480.511 152.628 483.453 115.644 483.453 115.644L495.814 117.949L519.797 122.413L529.569 124.231L555.739 129.108C568.787 131.535 577.762 150.445 575.279 170.279V170.279Z" fill="#F2F2F2"/>
<path d="M504.159 55.1658L515.721 75.4183L493.498 91.1824L484.018 66.2882L504.159 55.1658Z" fill="#FFB6B6"/>
<path d="M489.439 74.3255C505.259 74.3255 518.083 61.4891 518.083 45.6545C518.083 29.82 505.259 16.9836 489.439 16.9836C473.619 16.9836 460.795 29.82 460.795 45.6545C460.795 61.4891 473.619 74.3255 489.439 74.3255Z" fill="#FFB6B6"/>
<path d="M487.382 52.0642C485.108 48.5994 486.001 46.7872 484.096 45.5138C484.096 45.5138 483.33 45.0015 477.846 44.7093C476.619 35.8643 475.086 34.7916 475.086 34.7916C473.319 33.5554 470.698 33.9571 469.067 34.7132C465.618 36.3123 466.018 39.7666 463.695 40.4276C460.487 41.3407 454.65 36.193 454.075 30.2999C453.606 25.4928 456.7 20.824 457.927 21.071C459.144 21.3159 462.057 17.5931 463.63 17.6505C464.705 17.6898 469.094 15.7802 470.275 15.9295C471.564 16.0926 475.816 18.3134 475.993 17.806C477.224 14.2801 476.862 13.3019 477.907 12.2932C479.758 10.5059 482.786 11.7505 487.537 12.4187C497.312 13.7936 499.018 10.5676 504.027 12.7542C506.557 13.8588 508.675 16.8377 512.806 22.7504C518.584 31.0192 521.473 35.1536 521.491 39.9758C521.51 44.8936 519.131 44.5814 518.086 51.8618C516.923 59.9661 519.394 63.6718 516.694 66.3048C514.607 68.3397 510.365 68.8227 508.136 67.0368C504.321 63.9791 509.314 56.6009 505.092 51.2104C502.5 47.9015 497.287 46.4292 494.899 48.0648C492.199 49.9142 493.686 55.3426 491.788 55.8574C490.162 56.2982 487.779 52.6679 487.382 52.0642L487.382 52.0642Z" fill="#2F2E41"/>
<path d="M554.107 164.986C553.308 178.66 550.135 182.977 549.023 199.125C548.78 202.67 548.635 206.786 548.635 211.693C548.635 212.945 548.641 214.154 548.641 215.336C548.641 217.852 548.593 220.23 548.301 222.642C548.079 224.568 547.697 226.507 547.065 228.551H485.373C485.366 228.537 485.366 228.523 485.358 228.509C484.998 226.938 484.768 225.437 484.595 223.998C484.539 223.539 484.49 223.087 484.449 222.642C484.393 222.121 484.345 221.606 484.296 221.099C484.109 219.076 483.921 217.164 483.476 215.336C482.88 212.813 481.796 210.435 479.573 208.141C478.664 207.203 477.754 206.473 476.865 205.833C476.691 205.715 476.525 205.597 476.351 205.479C473.892 203.789 471.566 202.573 469.552 199.125C469.517 199.076 469.489 199.021 469.462 198.972C469.114 198.367 468.212 196.782 467.559 194.669C466.871 192.472 466.454 189.713 467.204 186.891C468.99 180.203 475.601 179.536 481.004 172.779C481.588 172.049 482.164 171.242 482.713 170.346C485.157 166.369 485.817 162.866 486.595 158.702C486.72 158.027 486.831 157.36 486.921 156.714C486.991 156.227 487.053 155.747 487.102 155.275C487.532 151.305 487.324 147.885 486.817 144.827C485.165 134.809 480.289 128.609 483.733 119.62C484.817 116.798 486.352 114.678 487.9 112.864C491.178 109.019 494.547 106.524 493.964 101.56C493.373 96.5552 489.581 95.8669 489.158 91.4943C488.942 89.2839 489.665 86.9551 491.019 84.668V84.6612C495.353 77.2993 506.173 70.5216 513.048 70.7371C514.319 70.7721 515.444 71.0569 516.382 71.6061C519.778 73.608 518.362 77.9806 523.563 84.112C527.431 88.6652 531.807 90.4865 533.467 91.3484C540.044 94.7827 545.391 104.911 549.023 117.862C549.051 117.959 549.079 118.056 549.107 118.161C551.35 126.273 552.934 135.484 553.719 144.827C554.052 148.782 554.246 152.758 554.288 156.693C554.323 159.835 554.253 162.56 554.107 164.986Z" fill="#FCB500"/>
<path d="M507.909 211.833L506.652 215.336L505.861 217.533L504.027 222.642L501.902 228.551H488.241L490.533 222.642L491.595 219.889L493.36 215.336L496.318 207.689L507.909 211.833Z" fill="#FFB6B6"/>
<path d="M549.239 116.666C549.204 117.118 549.156 117.618 549.107 118.161C548.566 123.68 547.287 133.558 545.419 144.827C544.433 150.77 543.28 157.103 541.981 163.394C539.19 176.97 535.717 190.338 531.793 199.125C531.092 200.71 530.369 202.142 529.633 203.407C529.071 204.374 528.48 205.326 527.862 206.264C525.862 209.344 523.618 212.264 521.292 214.989C521.202 215.107 521.097 215.218 520.994 215.336C520.619 215.781 520.229 216.219 519.841 216.657C517.938 218.805 515.993 220.807 514.111 222.642C511.819 224.881 509.61 226.862 507.631 228.551H485.449L485.359 228.509L482.164 227.091C482.164 227.091 483.074 226.02 484.595 223.998C484.908 223.587 485.241 223.136 485.602 222.642C486.046 222.037 486.526 221.37 487.039 220.647C488.109 219.132 489.324 217.352 490.63 215.336C493.158 211.436 496.04 206.64 498.95 201.086C499.284 200.439 499.624 199.785 499.964 199.125C499.971 199.104 499.985 199.083 499.992 199.063C500.568 197.936 501.138 196.775 501.707 195.594C506.534 185.542 507.916 177.2 508.312 174.496C508.868 170.673 509.638 165.327 509.43 159.446C509.291 155.567 508.729 151.465 507.389 147.392V147.385C507.11 146.53 506.798 145.675 506.444 144.827C505.812 143.304 505.062 141.803 504.172 140.322C500.249 133.802 497.061 133.53 494.526 126.426C493.776 124.32 492.074 119.565 492.595 114.546V114.539C492.658 113.92 492.762 113.295 492.901 112.669V112.662C492.936 112.488 492.984 112.307 493.033 112.134C493.429 110.597 494.082 109.075 495.075 107.629C497.012 104.821 499.658 103.152 502.027 102.158L502.034 102.151C504.77 101.011 507.132 100.768 507.59 100.726C517.736 99.8226 525.605 108.359 529.904 113.023C531.564 114.824 533.085 116.332 534.474 117.563C545.287 127.225 548.253 121.052 549.023 117.862C549.141 117.368 549.204 116.944 549.239 116.666V116.666Z" fill="#FC000A"/>
<path d="M549.274 116.305C549.274 116.339 549.267 116.457 549.239 116.652C549.253 116.548 549.26 116.443 549.267 116.346C549.267 116.325 549.267 116.311 549.274 116.305Z" fill="#FC000A"/>
<path d="M494.116 262.989H121.83C118.371 262.989 115.551 265.804 115.551 269.266C115.551 272.735 118.371 275.55 121.83 275.55H494.116C497.575 275.55 500.388 272.735 500.388 269.266C500.388 265.804 497.575 262.989 494.116 262.989Z" fill="#CB0012"/>
<path d="M163.256 56.4984L186.719 46.6149L196.782 67.2648L172.126 77.3379L163.256 56.4984Z" fill="#FFB6B6"/>
<path opacity="0.1" d="M163.256 56.4984L186.719 46.6149L196.782 67.2648L172.126 77.3379L163.256 56.4984Z" fill="black"/>
<path d="M166.591 48.6295L189.738 75.3233C189.738 75.3233 173.636 126.192 157.534 130.725C141.432 135.258 111.744 157.419 111.744 157.419L74.509 133.244L92.6236 106.55C92.6236 106.55 136.4 46.6149 147.974 46.6149C159.547 46.6149 166.591 48.6295 166.591 48.6295V48.6295Z" fill="#8D00FC"/>
<path d="M135.319 222.642H81.4379L78.0313 218.084L64.1234 199.474L60.9231 195.193C60.9231 195.193 48.8468 173.032 51.3627 152.886C53.8786 132.74 80.044 128.207 80.044 128.207H81.1209L113.153 156.381L111.241 182.602L121.385 199.474L135.319 222.642Z" fill="#2F2E41"/>
<path d="M92.4726 222.642H78.0313V201.237L92.4726 222.642Z" fill="#2F2E41"/>
<path d="M403.952 190.146L402.156 199.474L397.698 222.642H308.136C308.836 217.45 309.792 209.975 310.813 201.907C310.914 201.101 311.02 200.29 311.12 199.474C313.681 179.192 316.484 156.24 316.484 156.24L328.259 157.671L351.103 160.441L360.412 161.569L385.339 164.596C397.768 166.102 406.317 177.837 403.952 190.146H403.952Z" fill="#F2F2F2"/>
<path d="M530.699 222.642H482.122C482.861 221.771 483.279 221.267 483.279 221.267L497.841 218.86L527.846 213.904C527.846 213.904 529.214 217.445 530.699 222.642V222.642Z" fill="#2F2E41"/>
<path d="M324.648 66.5723L345.773 96.4764L308.923 97.5779L304.968 69.475L324.648 66.5723Z" fill="#A0616A"/>
<path opacity="0.1" d="M324.648 66.5723L345.773 96.4764L308.923 97.5779L304.968 69.475L324.648 66.5723Z" fill="black"/>
<path d="M220.466 128.531C217.756 120.705 211.524 115.76 206.548 117.488C201.572 119.215 199.736 126.959 202.449 134.789C203.49 137.931 205.267 140.778 207.633 143.092L219.536 176.109L234.897 170.188L221.531 138.267C221.958 134.983 221.593 131.645 220.466 128.531Z" fill="#A0616A"/>
<path d="M363.465 113.294L363.436 143.77L360.603 155.027L354.776 178.18L350.534 199.474L347.374 215.339L346.247 221.005C345.397 221.575 344.552 222.119 343.706 222.642H270.106C265.924 220.129 263.585 218.175 263.585 218.175C263.585 218.175 264.742 217.087 266.065 215.339C268.299 212.388 271.002 207.553 269.346 202.934C268.999 201.967 268.908 200.789 269.014 199.474C269.688 190.801 278.776 176.135 278.776 176.135L276.894 154.367L276.069 144.828L281.887 98.3149L300.852 87.2798L304.126 86.9628L336.445 85.2151L349.804 85.9856L350.412 86.1519L363.465 113.294V113.294Z" fill="#CCCCCC"/>
<path d="M364.9 222.642H348.798L348.089 215.339L348.074 215.193L352.633 214.881L364.493 214.07L364.699 218.442L364.86 221.796L364.9 222.642Z" fill="#FFB6B6"/>
<path d="M368.864 120.662L375.628 160.386L370.108 199.474L369.248 205.558L367.728 216.301L367.26 219.605L367.275 219.963L367.391 222.642H348.27L347.566 215.339L347.505 214.685L346.066 199.726L346.041 199.474L342.987 167.754L348.975 144.828L349.417 143.14V143.135L352.023 103.88L350.005 86.0411L349.985 85.8748C350.025 85.9 350.06 85.9252 350.1 85.9504C350.206 86.0159 350.312 86.0813 350.412 86.1519C362.167 93.6161 369.171 106.711 368.864 120.662Z" fill="#CCCCCC"/>
<path d="M288.737 105.927L281.384 98.3143C281.384 98.3143 265.644 105.417 264.859 109.358C264.074 113.298 236.283 171.175 236.283 171.175L224.192 138.851L208.453 149.369C208.453 149.369 221.082 199.553 232.892 201.909C244.703 204.265 284.286 142.511 284.286 142.511L288.737 105.927H288.737Z" fill="#CCCCCC"/>
<path d="M587.297 199.125H14.6957C6.59098 199.125 0 205.729 0 213.841C0 221.954 6.59097 228.551 14.6957 228.551H587.297C595.402 228.551 602 221.954 602 213.841C602 205.729 595.402 199.125 587.297 199.125Z" fill="#CB0012"/>
<path d="M360.114 154.282L359.001 206.281C358.893 211.315 354.785 215.339 349.755 215.339H254.19C249.279 215.339 245.224 211.497 244.956 206.588L242.116 154.589C241.827 149.286 246.044 144.828 251.35 144.828H350.868C356.053 144.828 360.225 149.094 360.114 154.282Z" fill="#3F3D56"/>
<path d="M205.839 69.0505C218.467 69.0505 228.704 58.8043 228.704 46.1648C228.704 33.5254 218.467 23.2791 205.839 23.2791C193.212 23.2791 182.975 33.5254 182.975 46.1648C182.975 58.8043 193.212 69.0505 205.839 69.0505Z" fill="#FFB6B6"/>
<path d="M167.598 106.046L170.114 133.244L187.222 202.244L172.441 207.43L147.47 132.236L144.021 102.017L167.598 106.046Z" fill="#FFB6B6"/>
<path d="M160.792 154.282L159.679 206.281C159.571 211.315 155.464 215.339 150.434 215.339H54.8685C49.9574 215.339 45.9028 211.497 45.6348 206.588L42.7947 154.589C42.5051 149.286 46.7228 144.828 52.0285 144.828H151.547C156.732 144.828 160.903 149.094 160.792 154.282Z" fill="#3F3D56"/>
<path d="M189.946 215.691C199.919 215.691 208.003 212.112 208.003 207.697C208.003 203.281 199.919 199.702 189.946 199.702C179.973 199.702 171.889 203.281 171.889 207.697C171.889 212.112 179.973 215.691 189.946 215.691Z" fill="#FFB6B6"/>
<path d="M132.123 110.204L142.439 55.1771C142.439 55.1771 171.12 51.1478 172.126 60.7173C173.133 70.2867 171.407 117.054 171.407 117.054L132.123 110.204V110.204Z" fill="#8D00FC"/>
<path d="M196.61 49.7632C196.61 49.7632 210.754 44.7106 216.72 41.992C222.686 39.2735 234.539 58.2352 234.802 48.2209C235.066 38.2066 230.97 34.007 230.97 34.007C230.97 34.007 229.948 12.0992 207.897 14.8382C207.897 14.8382 212.747 3.87744 196.826 2.18256C180.905 0.487687 156.135 38.9708 158.354 44.7219C160.572 50.4729 163.231 55.2276 156.938 61.3768C150.644 67.526 138.86 102.23 147.826 111.569C156.792 120.908 157.38 124.96 151.237 130.77C145.094 136.58 130.573 149.213 146.273 151.406C161.974 153.599 144.837 151.961 156.542 141.655C168.247 131.35 185.327 131.771 178.95 115.236C172.572 98.702 183.652 75.0084 182.266 71.4139C180.88 67.8195 185.372 44.9947 185.372 44.9947C185.372 44.9947 195.828 43.4571 196.61 49.7632V49.7632Z" fill="#2F2E41"/>
<path d="M313.352 77.396C327.098 77.396 338.242 66.2422 338.242 52.4832C338.242 38.7243 327.098 27.5705 313.352 27.5705C299.606 27.5705 288.463 38.7243 288.463 52.4832C288.463 66.2422 299.606 77.396 313.352 77.396Z" fill="#A0616A"/>
<path d="M315.339 18.9898C314.619 19.4106 313.654 18.7739 313.423 17.9719C313.192 17.1698 313.461 16.3182 313.728 15.5274L315.071 11.5461C316.023 8.72253 317.034 5.80027 319.097 3.65115C322.21 0.407397 327.158 -0.417799 331.612 0.180026C337.332 0.947754 342.975 4.0479 345.635 9.17438C348.294 14.3009 347.162 21.4542 342.356 24.6526C349.205 32.5102 351.593 41.2672 351.216 51.6882C350.839 62.1092 339.493 71.6999 332.094 79.0411C330.442 78.0386 328.94 73.3402 329.849 71.6334C330.757 69.9266 329.455 67.9492 330.581 66.377C331.706 64.8048 332.647 67.3082 331.51 65.745C330.792 64.7585 333.594 62.4892 332.527 61.8988C327.365 59.0431 325.649 52.6038 322.407 47.6727C318.497 41.7249 311.805 37.697 304.723 37.0288C300.822 36.6607 296.702 37.3274 293.504 39.5943C290.307 41.8612 288.237 45.9122 288.978 49.7635C287.058 47.8118 286.102 44.9516 286.462 42.2362C286.823 39.5208 288.492 37.0098 290.855 35.6279C289.418 30.872 290.649 25.4014 293.984 21.7212C297.319 18.041 310.847 18.6678 315.715 19.6364L315.339 18.9898Z" fill="#2F2E41"/>
<path d="M316.095 37.1732C322.543 37.8699 327.199 43.4609 331.131 48.6241C333.397 51.6001 335.77 54.8865 335.713 58.6279C335.656 62.4105 333.129 65.6549 331.922 69.2397C329.948 75.0991 331.872 82.0704 336.57 86.0853C331.927 86.9671 326.909 83.4828 326.107 78.8214C325.174 73.395 329.284 68.1577 328.797 62.6732C328.368 57.8412 324.564 54.1224 321.33 50.5096C318.096 46.8967 315.058 42.1025 316.546 37.4858L316.095 37.1732Z" fill="#2F2E41"/>
<path d="M412.497 202.274C406.11 205.91 402.807 212.156 405.119 216.225C407.432 220.293 414.484 220.642 420.872 217.004C423.445 215.585 425.64 213.571 427.275 211.13L454.143 195.38L446.49 182.917L420.816 199.767C417.882 199.925 415.03 200.785 412.497 202.274Z" fill="#FFB6B6"/>
<path d="M503.467 86.7835C502.665 86.465 495.619 83.7946 489.188 87.3203C481.799 91.3705 480.658 100.616 480.258 103.859C479.333 111.35 482.057 113.029 482.632 120.613C483.708 134.801 486.545 118.615 482.015 125.091C480.446 127.333 464.432 162.072 455.6 168.876C438.422 182.11 427.514 191.43 427.514 191.43L439.967 204.97C439.967 204.97 459.645 199.722 477.037 188.418C494.877 176.823 503.798 171.026 510.699 159.684C511.293 158.707 525.513 134.536 517.876 107.809C516.134 101.712 512.943 90.542 503.467 86.7835Z" fill="#FCB500"/>
<path d="M567.77 154.282L566.656 206.281C566.549 211.315 562.441 215.339 557.411 215.339H461.846C456.935 215.339 452.88 211.497 452.612 206.588L449.772 154.589C449.482 149.286 453.7 144.828 459.006 144.828H558.524C563.709 144.828 567.881 149.094 567.77 154.282Z" fill="#3F3D56"/>
</svg>
